# xmcd CD database file
#
# Track frame offsets:
#	165
#	13792
#	32159
#	44338
#	60872
#	74109
#	86384
#	101905
#	115586
#	131190
#	150372
#	167229
#	181748
#	199953
#	215320
#
# Disc length: 3061 seconds
#
# Revision: 0
# Processed by: cddbd v1.5.2PL0 Copyright (c) Steve Scherf et al.
# Submitted via: CdAid (MTCDDB.DLL V2003.12.21)
#
DISCID=cc0bf30f
DTITLE=Gaúcho da Fronteira - Grandes Sucessos Vol 2
DYEAR=1996
DGENRE=Country
TTITLE0=Nheco Vari Nheco Fum
TTITLE1=De-lhe Boca
TTITLE2=Outro Dedo
TTITLE3=Eu Quero Xote
TTITLE4=Querido Amor
TTITLE5=Churrasco Lá Em Casa
TTITLE6=Baile da Fronteira
TTITLE7=Desafio da Rancheira
TTITLE8=Sublime Recado
TTITLE9=Vanerinha Faz Lembrar
TTITLE10=Paixão de Cabo a Rabo
TTITLE11=Paixão Ingrata
TTITLE12=Peleia de Mango
TTITLE13=Monarca
TTITLE14=Na Minha Terra Tem Quem Queira
EXTD=ID3G:   2 YEAR: 1996
EXTT0=
EXTT1=
EXTT2=
EXTT3=
EXTT4=
EXTT5=
EXTT6=
EXTT7=
EXTT8=
EXTT9=
EXTT10=
EXTT11=
EXTT12=
EXTT13=
EXTT14=
PLAYORDER=
